<svg version="1.1" viewBox="0.0 0.0 167.89238845144357 168.51181102362204" fill="none" stroke="none" stroke-linecap="square" stroke-miterlimit="10" xmlns:xlink="http://www.w3.org/1999/xlink" xmlns="http://www.w3.org/2000/svg"><clipPath id="p.0"><path d="m0 0l167.8924 0l0 168.51181l-167.8924 0l0 -168.51181z" clip-rule="nonzero"/></clipPath><g clip-path="url(#p.0)"><path fill="#000000" fill-opacity="0.0" d="m0 0l167.8924 0l0 168.51181l-167.8924 0z" fill-rule="evenodd"/><path fill="#000000" fill-opacity="0.0" d="m6.5910068 84.25459l0 0c0 -42.991238 34.632713 -77.84252 77.35433 -77.84252l0 0c20.515648 0 40.191025 8.201242 54.697777 22.799547c14.506744 14.598305 22.656555 34.397854 22.656555 55.042973l0 0c0 42.991234 -34.632713 77.842514 -77.35433 77.842514l0 0c-42.721615 0 -77.35433 -34.85128 -77.35433 -77.842514z" fill-rule="evenodd"/><path stroke="#085a86" stroke-width="12.0" stroke-linejoin="round" stroke-linecap="butt" d="m6.5910068 84.25459l0 0c0 -42.991238 34.632713 -77.84252 77.35433 -77.84252l0 0c20.515648 0 40.191025 8.201242 54.697777 22.799547c14.506744 14.598305 22.656555 34.397854 22.656555 55.042973l0 0c0 42.991234 -34.632713 77.842514 -77.35433 77.842514l0 0c-42.721615 0 -77.35433 -34.85128 -77.35433 -77.842514z" fill-rule="evenodd"/><path fill="#000000" fill-opacity="0.0" d="m64.76817 89.82809l0 0c0 -26.701015 21.645447 -48.34646 48.34646 -48.34646l0 0c12.822273 0 25.119392 5.093628 34.186104 14.160347c9.066727 9.066719 14.160355 21.36383 14.160355 34.18611l0 0c0 26.701012 -21.645447 48.34646 -48.34646 48.34646l0 0c-26.701012 0 -48.34646 -21.645447 -48.34646 -48.34646z" fill-rule="evenodd"/><path stroke="#085a86" stroke-width="12.0" stroke-linejoin="round" stroke-linecap="butt" d="m64.76817 89.82809l0 0c0 -26.701015 21.645447 -48.34646 48.34646 -48.34646l0 0c12.822273 0 25.119392 5.093628 34.186104 14.160347c9.066727 9.066719 14.160355 21.36383 14.160355 34.18611l0 0c0 26.701012 -21.645447 48.34646 -48.34646 48.34646l0 0c-26.701012 0 -48.34646 -21.645447 -48.34646 -48.34646z" fill-rule="evenodd"/><path fill="#000000" fill-opacity="0.0" d="m35.82149 84.25722l0 0c0 -35.772396 28.054474 -64.77165 62.66142 -64.77165l0 0c16.618843 0 32.557022 6.8241367 44.30832 18.971176c11.751282 12.147041 18.353104 28.621964 18.353104 45.800476l0 0c0 35.7724 -28.054474 64.77165 -62.661423 64.77165l0 0c-34.606945 0 -62.66142 -28.999252 -62.66142 -64.77165z" fill-rule="evenodd"/><path stroke="#085a86" stroke-width="12.0" stroke-linejoin="round" stroke-linecap="butt" d="m35.82149 84.25722l0 0c0 -35.772396 28.054474 -64.77165 62.66142 -64.77165l0 0c16.618843 0 32.557022 6.8241367 44.30832 18.971176c11.751282 12.147041 18.353104 28.621964 18.353104 45.800476l0 0c0 35.7724 -28.054474 64.77165 -62.661423 64.77165l0 0c-34.606945 0 -62.66142 -28.999252 -62.66142 -64.77165z" fill-rule="evenodd"/><path fill="#000000" fill-opacity="0.0" d="m63.197308 34.451443l96.0 0l0 79.18111l-96.0 0z" fill-rule="evenodd"/><path fill="#085a86" d="m136.86206 95.41887q1.65625 0 2.609375 1.546875q0.96875 1.53125 0.96875 4.21875q0 4.59375 -2.171875 7.921875q-3.578125 5.515625 -9.40625 8.59375q-5.8281326 3.0625 -13.890633 3.0625q-12.28125 0 -19.078125 -7.359375q-6.78125 -7.359375 -6.78125 -19.90625q0 -8.828125 3.703125 -16.4375q3.71875 -7.625 10.3125 -12.09375q6.59375 -4.484379 14.921875 -4.484379q7.421875 0 11.890633 4.421879q4.484375 4.40625 4.484375 11.953125q0 8.828125 -6.34375 15.171875q-6.3281326 6.328125 -21.562508 10.046875q3.078125 5.890625 10.375 5.890625q5.25 0 8.640625 -2.4375q3.3906326 -2.4375 7.8750076 -8.1875q1.53125 -1.921875 3.453125 -1.921875zm-21.000008 -22.40625q-4.734375 0 -8.0 5.515625q-3.25 5.5 -3.25 13.3125l0 0.25q7.546875 -1.796875 11.890625 -5.375q4.359375 -3.578125 4.359375 -8.328125q0 -2.421875 -1.34375 -3.890625q-1.34375 -1.484375 -3.65625 -1.484375z" fill-rule="nonzero"/><path fill="#010000" fill-opacity="0.0" d="m137.50131 -46.662037l0 0l0 224.76804l0 0l0 -224.76804z" fill-rule="nonzero"/></g></svg>